# xmcd
#
# Track frame offsets: 
#        150
#        17673
#        30826
#
# Disc length: 533 seconds
#
# Revision: 1
# Processed by: cddbd v1.5.1PL2 Copyright (c) Steve Scherf et al.
# Submitted via: ExactAudioCopy v0.95b2
#
DISCID=12021303
DTITLE=Tralala - Falala-La-La with Tralala
DYEAR=1980
DGENRE=Christmas
TTITLE0=Christmas Never Comes (When You're Alone)
TTITLE1=Holiday Hearts
TTITLE2=Everybody Christmastime
EXTD=
EXTT0=
EXTT1=
EXTT2=
PLAYORDER=
